<svg xmlns="http://www.w3.org/2000/svg" width="14" height="14" viewBox="5 5 14 14">
    <g fill="none" fill-rule="evenodd">
        <g>
            <g>
                <g>
                    <g>
                        <path d="M0 0H24V24H0z" transform="translate(-433.000000, -980.000000) translate(312.000000, 976.000000) translate(121.000000, 4.000000)"/>
                        <path fill="#01c38d" d="M15.833 11.416l-3.294-3.239c-.224-.185-.652-.262-.901-.047-.246.211-.239.621.006.833l2.316 2.274H7.618c-.341 0-.618.256-.618.572 0 .315.277.571.618.571h6.342l-2.316 2.274c-.21.195-.25.62-.006.833.243.214.687.146.9-.047l3.295-3.239c.112-.11.167-.24.167-.392-.006-.137-.066-.294-.167-.393z" transform="translate(-433.000000, -980.000000) translate(312.000000, 976.000000) translate(121.000000, 4.000000) translate(11.500001, 11.809529) scale(-1, 1) rotate(270.000000) translate(-11.500001, -11.809529)"/>
                    </g>
                </g>
            </g>
        </g>
    </g>
</svg>
