<svg xmlns="http://www.w3.org/2000/svg" width="34" height="34" viewBox="0 0 34 34">
    <path fill="#323232" fill-rule="evenodd" d="M17.927 3.586C25.7 3.586 32 9.946 32 17.793 32 25.64 25.7 32 17.927 32c-7.772 0-14.073-6.36-14.073-14.207 0-.441.02-.878.06-1.31.191.013.385.019.58.019 5.3 0 9.595-4.337 9.595-9.687 0-.897-.12-1.766-.347-2.59 1.322-.415 2.728-.639 4.185-.639zm1.82 7.104l-2.48.01-4.457 12.128 1.937 1.714 6.417-3.036 1.051 2.906 2.197-.801-4.665-12.921zm-2.338.395l.13.406-4.06 11.056-.332.154 4.262-11.616zm.271.79l.13.395-3.669 9.968-.323.15 3.862-10.513zm.261.79l.13.385-3.27 8.88-.34.16 3.48-9.424zm.272.78l.13.395-2.88 7.783-.327.152 3.077-8.33zm.297.729l1.85 5.11-4.56 2.182 2.71-7.292zM4.363 3.728v8.868H2.376V3.728h1.987zm-2.378-.714v8.868H-.002V3.014h1.987zm4.692-.41v8.867H4.69V2.603h1.987zm2.313-1.57v8.868H7.003V1.034H8.99z"/>
</svg>
