<?xml version="1.0" standalone="no"?>
<!DOCTYPE svg PUBLIC "-//W3C//DTD SVG 20010904//EN"
 "http://www.w3.org/TR/2001/REC-SVG-20010904/DTD/svg10.dtd">
<svg version="1.0" xmlns="http://www.w3.org/2000/svg"
 width="512.000000pt" height="512.000000pt" viewBox="0 0 512.000000 512.000000"
 preserveAspectRatio="xMidYMid meet">
<metadata>
Created by potrace 1.14, written by Peter Selinger 2001-2017
</metadata>
<g transform="translate(0.000000,512.000000) scale(0.100000,-0.100000)"
fill="#000000" stroke="none">
<path d="M1218 4836 c-2 -12 -3 -309 -3 -661 l0 -640 143 -1 c79 0 145 3 148
8 4 6 7 704 4 1234 l0 81 -144 0 c-139 0 -144 -1 -148 -21z"/>
<path d="M893 4622 l-23 -3 0 -660 0 -659 149 0 149 0 -2 661 -1 662 -125 1
c-69 0 -135 0 -147 -2z"/>
<path d="M213 4562 l-43 -3 0 -660 c0 -520 3 -659 13 -659 17 -1 237 -1 264
-1 l21 1 0 656 c1 498 -2 656 -11 659 -16 6 -191 11 -244 7z"/>
<path d="M2808 4475 c-2 -2 -53 -5 -114 -9 -62 -3 -118 -8 -125 -10 -8 -3 -32
-7 -54 -10 -79 -11 -111 -17 -160 -31 -27 -7 -69 -18 -91 -24 l-42 -11 10 -43
c5 -23 12 -51 14 -62 33 -155 35 -362 3 -540 -100 -569 -562 -1039 -1130
-1149 -99 -19 -145 -23 -270 -25 -69 -1 -96 -5 -97 -13 -4 -45 -2 -323 3 -368
31 -291 91 -502 210 -745 287 -585 825 -1000 1464 -1131 152 -31 236 -39 416
-39 255 0 439 29 667 105 120 40 318 129 388 174 196 126 373 265 460 362 99
110 166 195 234 296 233 354 350 742 350 1168 0 101 -10 251 -19 300 -3 13 -7
42 -10 65 -8 51 -48 211 -74 291 -162 506 -548 962 -1023 1207 -57 29 -128 63
-158 76 -30 12 -64 26 -75 31 -76 34 -334 99 -450 114 -64 8 -323 24 -327 21z
m312 -1058 c0 -4 -3 3 200 -552 138 -379 166 -456 265 -730 51 -143 96 -267
176 -483 29 -78 50 -144 47 -147 -6 -7 -306 -115 -316 -115 -4 0 -19 33 -34
73 -14 39 -50 136 -78 213 l-52 141 -89 -43 c-50 -24 -91 -44 -93 -44 -2 0
-69 -31 -148 -69 -130 -63 -239 -114 -521 -245 -55 -25 -101 -46 -104 -46 -5
0 -199 168 -254 220 l-37 35 64 170 c35 94 76 202 90 240 15 39 30 79 34 90 5
11 25 65 45 120 20 55 45 123 55 150 11 28 37 100 59 160 21 61 44 121 50 135
9 23 134 361 216 585 18 50 38 102 44 118 l11 27 185 0 c102 0 185 -2 185 -3z"/>
<path d="M2737 3279 c-14 -41 -41 -117 -60 -169 -248 -672 -509 -1376 -525
-1416 -20 -50 -20 -52 -2 -47 24 6 32 17 52 68 15 36 150 403 274 745 25 69
50 134 54 145 5 11 45 119 90 240 44 121 87 236 95 255 18 47 62 170 69 196 3
11 0 28 -8 39 -12 17 -15 11 -39 -56z"/>
<path d="M2725 3018 c-43 -117 -104 -283 -135 -368 -32 -85 -108 -292 -170
-460 -61 -168 -118 -318 -125 -335 -14 -33 -55 -152 -55 -160 0 -7 13 -6 28 4
11 7 92 212 162 411 11 30 104 283 208 563 176 472 202 557 173 557 -4 0 -42
-96 -86 -212z"/>
<path d="M2796 2988 c-68 -186 -56 -153 -256 -688 -99 -267 -187 -504 -194
-527 l-14 -41 24 10 c23 11 44 64 371 948 52 140 97 262 100 270 3 8 7 20 9
25 1 6 9 28 17 50 9 26 11 48 6 63 -5 12 -10 22 -12 22 -1 0 -25 -60 -51 -132z"/>
<path d="M2822 2828 c-35 -95 -68 -182 -72 -193 -5 -11 -22 -56 -39 -100 -55
-151 -230 -620 -255 -687 -14 -38 -22 -68 -18 -68 28 0 54 55 152 320 60 162
118 318 129 345 11 28 52 138 91 245 40 107 78 209 86 227 17 38 17 45 1 66
-10 15 -21 -7 -75 -155z"/>
<path d="M2915 2855 c-10 -28 -33 -88 -51 -135 -136 -359 -331 -886 -328 -889
4 -4 9 -2 219 99 77 37 187 89 245 116 187 87 207 98 202 114 -2 8 -58 164
-124 345 -66 182 -126 346 -133 365 l-12 34 -18 -49z"/>
<path d="M527 4445 c-2 -9 -1 -1254 2 -1297 1 -14 18 -16 146 -16 l145 0 1 47
c0 25 1 323 1 661 l1 614 -146 1 c-93 0 -148 -3 -150 -10z"/>
</g>
</svg>
